<svg width="800" height="400" xmlns="http://www.w3.org/2000/svg">
  <defs>
    <linearGradient id="grad7" x1="0%" y1="0%" x2="100%" y2="100%">
      <stop offset="0%" style="stop-color:#0f172a;stop-opacity:1" />
      <stop offset="100%" style="stop-color:#2563eb;stop-opacity:1" />
    </linearGradient>
  </defs>
  <rect width="100%" height="100%" fill="url(#grad7)" />
  <text x="50%" y="50%" font-family="Arial" font-size="32" fill="white" text-anchor="middle" dominant-baseline="middle">Alumni Registration System</text>
  <g fill="none" stroke="rgba(255,255,255,0.2)" stroke-width="2">
    <path d="M200,100 L250,150 L200,200 L150,150 Z" />
    <path d="M600,200 L650,250 L600,300 L550,250 Z" />
    <path d="M400,150 L430,180 L400,210 L370,180 Z" />
    <rect x="300" y="250" width="60" height="40" rx="5" />
    <rect x="500" y="120" width="80" height="50" rx="5" />
  </g>
  <path d="M50,200 Q200,100 400,200 T750,200" stroke="rgba(37,99,235,0.5)" stroke-width="3" fill="none" />
  <path d="M50,250 Q200,350 400,250 T750,250" stroke="rgba(59,130,246,0.5)" stroke-width="3" fill="none" />
</svg>